<svg width="100" height="100" fill="#ffffff" viewBox="0 0 24 24" xmlns="http://www.w3.org/2000/svg">
<path fill-rule="evenodd" d="M16.5 16c1.283 0 2-.835 2-1.5s-.717-1.5-2-1.5-2 .835-2 1.5.717 1.5 2 1.5Zm0 1c1.657 0 3-1.12 3-2.5s-1.343-2.5-3-2.5-3 1.12-3 2.5 1.343 2.5 3 2.5Z" clip-rule="evenodd"></path>
<path d="M7.864 6.563c.334-.086.672-.221.914-.4.635-.467 1.004-1.407.191-1.304-.236.03-.407.036-.546.041-.34.012-.49.017-.94.349a3.3 3.3 0 0 0-.476.423C6.308 5.152 5.377 4.92 3.75 5a.25.25 0 0 0 0 .5h.868c.143.092.266.178.374.26L3.2 8h-.106a1 1 0 0 0-.958 1.287l.15.5a1 1 0 0 0 .958.713h1.68a1 1 0 0 1 .589.191l1.095.796c.033.024.067.046.101.066.784 2.019 1.61 3.592 2.536 4.384l.172 2.07A.5.5 0 0 0 9.5 19H11v-4.5h4.905c.74.72 1.57 1.285 2.845 1.5l.167 2.007A.5.5 0 0 0 19 19h1.5v-9a3.06 3.06 0 0 0-.635-1.877c.312.084.53.206.685.354.279.268.45.719.45 1.523l.194 2.71c-.118.182-.194.468-.194.79 0 .552.224 1 .5 1s.5-.448.5-1c0-.322-.076-.607-.194-.79L22 10c0-.917-.192-1.7-.757-2.244-.558-.536-1.378-.738-2.386-.755L17.75 7v.003A2.843 2.843 0 0 0 17.61 7h-7.36a7.565 7.565 0 0 1-2.31-.334 7.737 7.737 0 0 0-.076-.103Z"></path>
<path d="m14.037 14.883-.874.357.379.926.873-.358-.378-.925Z"></path>
<path d="m14.438 16.93.53-.985.88.474-.53.985-.88-.474Z"></path>
<path d="m16.505 16.46.212 1.097.982-.19-.212-1.098-.982.19Z"></path>
</svg>