<svg width="100" height="100" fill="#ffffff" viewBox="0 0 24 24" xmlns="http://www.w3.org/2000/svg">
<path d="M14 14.5h-1c0 1.38 1.343 2.5 3 2.5.874 0 1.661-.312 2.21-.809l-.938-.536c-.324.208-.752.345-1.272.345-1.283 0-2-.835-2-1.5Z"></path>
<path fill-rule="evenodd" d="M9.733 6.437c.317-.28.578-.658.668-1.019.052-.204.075-.529-.151-.791-.232-.269-.574-.298-.844-.264a5.02 5.02 0 0 1-.5.037h-.022c-.155.006-.34.012-.544.079-.212.068-.413.19-.654.367a3.908 3.908 0 0 0-.443.38c-.814-.58-1.863-.807-3.509-.726A.75.75 0 0 0 3.75 6h.718l.123.085-1.136 1.42a1.5 1.5 0 0 0-1.317 1.91l.145.5A1.5 1.5 0 0 0 3.724 11h1.561a.5.5 0 0 1 .301.101l.972.734c.085.064.174.118.266.162.578 1.564 1.201 2.898 1.906 3.786l.16 1.925A1 1 0 0 0 9.5 19.5H11a.5.5 0 0 0 .5-.5v-4h3.705c.681.633 1.469 1.156 2.578 1.416l.107 1.29a1 1 0 0 0 .61 1.793H20a.5.5 0 0 0 .5-.5v-8.5c0-1.46-.385-2.476-1.018-3.13-.634-.651-1.448-.87-2.165-.87H10.75a7.81 7.81 0 0 1-1.017-.062Zm-4.16-.848.056.05a.5.5 0 0 1 .053.683L4.09 8.312a.5.5 0 0 1-.39.187h-.12a.5.5 0 0 0-.48.64l.144.5a.5.5 0 0 0 .48.36h1.561a1.5 1.5 0 0 1 .904.303l.971.734c.06.045.12.072.179.087a.5.5 0 0 1 .345.314c.624 1.723 1.256 3.047 1.913 3.826a.5.5 0 0 1 .117.281l.201 2.42a.5.5 0 0 1-.415.535h1v-4a.5.5 0 0 1 .5-.5h4.405a.5.5 0 0 1 .35.142c.689.672 1.43 1.172 2.578 1.365a.5.5 0 0 1 .415.452l.167 2.007a.5.5 0 0 1-.415.534h1v-8c0-1.29-.338-2.023-.736-2.432-.398-.41-.925-.568-1.447-.568H10.75c-1.145 0-1.985-.191-2.687-.43a.5.5 0 0 1 .056-.963c.341-.073.665-.2.863-.346a1.457 1.457 0 0 0 .356-.384c-.163.015-.292.02-.396.023H8.94c-.18.007-.232.012-.291.03-.06.02-.16.067-.37.222-.256.189-.447.39-.56.554a.5.5 0 0 1-.757.082c-.345-.327-.756-.57-1.39-.698Z" clip-rule="evenodd"></path>
<path d="M22 13c0 .552-.224 1-.5 1s-.5-.448-.5-1 .224-1 .5-1 .5.448.5 1Z"></path>
<path fill-rule="evenodd" d="M16.25 7.5v-1h2.607c1.008.018 1.828.22 2.386.757C21.809 7.8 22 8.583 22 9.5h-1c0-.804-.171-1.255-.45-1.522-.286-.275-.792-.462-1.71-.477h-.112L16.25 7.5Z" clip-rule="evenodd"></path>
<path d="M21 9.5h1l-.25 3.5h-.5L21 9.5Z"></path>
<path fill-rule="evenodd" d="m12.663 15.24.874-.357.378.925-.873.358-.379-.926Z" clip-rule="evenodd"></path>
<path fill-rule="evenodd" d="m13.938 16.93.53-.985.88.474-.53.985-.88-.474Z" clip-rule="evenodd"></path>
<path fill-rule="evenodd" d="m16.217 17.557-.213-1.098.982-.19.213 1.098-.982.19Z" clip-rule="evenodd"></path>
<path fill-rule="evenodd" d="M15.163 14.141a.48.48 0 0 0-.163.358h1a.52.52 0 0 1-.573.518.667.667 0 0 1-.27-.095l-.002-.001a2.444 2.444 0 0 1-.304-.23 14.128 14.128 0 0 1-.78-.737c-.566-.569-1.222-1.286-1.485-1.675l.828-.56c.204.3.797.958 1.366 1.53.28.281.537.525.72.681.09.078.144.117.165.13a.41.41 0 0 0-.137-.038.48.48 0 0 0-.365.119Zm.505-.079Z" clip-rule="evenodd"></path>
</svg>